<svg width="253" height="253" viewBox="0 0 253 253" fill="none" xmlns="http://www.w3.org/2000/svg">
<path d="M122.084 60.7177C122.303 60.7175 122.522 60.7173 122.748 60.7172C126.349 60.7215 129.866 60.8877 133.418 61.5206C133.65 61.5617 133.882 61.6028 134.121 61.6451C145.314 63.7059 155.718 68.4275 164.549 75.6037C164.743 75.7598 164.743 75.7598 164.941 75.919C168.676 78.9405 172.288 82.3789 175.173 86.2277C175.407 86.5287 175.64 86.8294 175.875 87.1301C177.608 89.377 179.137 91.7094 180.608 94.1339C181.046 94.9768 181.046 94.9768 182.039 95.0758C182.448 95.13 182.858 95.1806 183.268 95.2284C183.599 95.2711 183.599 95.2711 183.937 95.3146C184.412 95.3757 184.887 95.4354 185.363 95.4938C186.609 95.6476 187.854 95.8139 189.099 95.9783C189.346 96.0107 189.594 96.0431 189.849 96.0765C198.395 97.1965 207.355 98.4671 212.975 105.746C218.482 113.669 218.144 124.202 216.528 133.288C213.133 150.752 204.566 167.368 192.826 180.694C192.58 180.974 192.337 181.257 192.096 181.541C190.893 182.947 189.599 184.256 188.289 185.561C187.913 185.935 187.539 186.311 187.165 186.686C185.846 188.007 184.504 189.284 183.079 190.491C182.841 190.7 182.603 190.909 182.357 191.124C177.75 195.096 172.771 198.56 167.514 201.61C167.276 201.749 167.276 201.749 167.033 201.891C154.104 209.424 139.808 213.792 125.018 215.739C124.705 215.78 124.393 215.821 124.071 215.864C110.204 217.624 92.0937 217.686 80.2979 209.022C76.5633 206.019 74.2502 202.134 73.3799 197.409C73.252 196.139 73.2382 194.887 73.2564 193.611C73.2577 193.441 73.2591 193.271 73.2605 193.097C73.3029 188.571 73.9252 184.201 75.4169 179.914C75.5122 179.632 75.5122 179.632 75.6093 179.345C75.6677 179.183 75.7261 179.02 75.7863 178.853C75.8729 178.222 75.6891 177.928 75.3565 177.397C75.033 177.051 74.6969 176.718 74.3527 176.393C73.0939 175.16 72.0067 173.831 70.9092 172.455C70.6809 172.18 70.4522 171.906 70.223 171.632C61.7152 161.375 56.6534 148.6 55.3438 135.395C55.295 134.952 55.295 134.952 55.2453 134.501C54.998 131.927 55.0534 129.33 55.0967 126.747C55.1014 126.45 55.1014 126.45 55.1061 126.147C55.4378 110.234 62.2108 94.7797 72.8549 83.1007C73.3367 82.5693 73.8074 82.0304 74.2755 81.487C75.6726 79.8876 77.193 78.454 78.8155 77.0861C78.9443 76.9759 79.0731 76.8658 79.2058 76.7523C89.1646 68.2706 101.607 62.5328 114.641 61.0265C114.828 61.0036 115.015 60.9806 115.208 60.957C117.493 60.7106 119.787 60.7192 122.084 60.7177ZM100.558 72.6388C100.394 72.7036 100.23 72.7684 100.061 72.8351C90.9197 76.4577 82.3321 83.1225 76.3448 90.922C76.218 91.0846 76.0913 91.2473 75.9608 91.4148C67.527 102.287 62.9515 115.413 62.9412 129.156C62.941 129.358 62.9409 129.559 62.9407 129.766C62.9451 133.172 63.137 136.485 63.7442 139.842C63.7853 140.074 63.8263 140.306 63.8687 140.545C65.6101 150.062 69.6609 158.679 75.6035 166.278C75.8778 166.63 75.8778 166.63 76.1575 166.988C79.5717 171.182 83.5135 175.052 87.9571 178.138C88.1112 178.247 88.2654 178.356 88.4242 178.469C101.128 187.44 116.861 190.908 132.183 188.515C144.396 186.402 155.38 180.788 164.302 172.208C164.484 172.034 164.484 172.034 164.67 171.857C168.541 168.141 171.791 163.728 174.429 159.06C174.672 158.632 174.919 158.207 175.167 157.783C179.489 150.202 182.072 140.951 182.15 132.215C182.152 131.989 182.155 131.764 182.157 131.532C182.199 126.565 182.178 121.738 181.103 116.864C181.048 116.618 180.994 116.373 180.938 116.119C178.368 104.871 172.991 95.0666 165.043 86.7218C164.902 86.5738 164.761 86.4259 164.616 86.2734C162.635 84.2085 160.602 82.3092 158.299 80.609C157.888 80.3052 157.481 79.996 157.075 79.6861C141.06 67.6687 119.008 65.0689 100.558 72.6388Z" fill="#FFC629"/>
<path d="M122.084 60.7177C122.303 60.7175 122.522 60.7173 122.748 60.7172C126.349 60.7215 129.866 60.8877 133.418 61.5206C133.65 61.5617 133.882 61.6028 134.121 61.6451C145.314 63.7059 155.718 68.4275 164.549 75.6037C164.743 75.7598 164.743 75.7598 164.941 75.919C168.676 78.9405 172.288 82.3789 175.173 86.2277C175.407 86.5287 175.64 86.8294 175.875 87.1301C177.608 89.376 179.156 91.6983 180.608 94.1339C180.859 94.5472 180.859 94.5472 181.114 94.9688C185.501 102.401 188.21 110.571 189.503 119.088C189.547 119.346 189.591 119.603 189.636 119.869C190.087 122.77 190.085 125.655 190.074 128.585C190.074 128.981 190.074 128.981 190.073 129.384C190.062 133.166 189.985 136.861 189.256 140.583C189.212 140.815 189.168 141.047 189.123 141.286C188.802 142.958 188.431 144.614 188.021 146.266C187.966 146.485 187.912 146.704 187.856 146.93C186.616 151.807 184.695 156.406 182.338 160.843C182.204 161.1 182.204 161.1 182.067 161.363C179.78 165.747 176.973 169.749 173.69 173.443C173.528 173.633 173.366 173.822 173.199 174.017C172.259 175.114 171.264 176.14 170.231 177.15C170.038 177.343 169.844 177.537 169.645 177.736C169.431 177.95 169.217 178.164 168.996 178.385C168.848 178.542 168.7 178.698 168.547 178.86C166.936 180.534 165.17 181.938 163.314 183.326C163.157 183.445 163 183.563 162.839 183.684C151.295 192.332 136.892 196.965 122.501 196.977C122.317 196.977 122.134 196.977 121.945 196.977C112.405 196.964 103.017 194.784 94.3809 190.738C94.2034 190.656 94.0259 190.573 93.8431 190.488C89.921 188.639 86.2308 186.429 82.7686 183.82C82.6296 183.717 82.4906 183.614 82.3474 183.507C79.8517 181.644 77.5946 179.559 75.3565 177.397C75.1367 177.187 74.917 176.977 74.6905 176.762C73.309 175.419 72.1096 173.96 70.9092 172.455C70.681 172.18 70.4522 171.906 70.223 171.632C61.7152 161.375 56.6534 148.6 55.3438 135.395C55.295 134.952 55.295 134.952 55.2453 134.501C54.998 131.927 55.0534 129.33 55.0967 126.747C55.1014 126.45 55.1014 126.45 55.1061 126.147C55.4378 110.234 62.2108 94.7797 72.8549 83.1007C73.3367 82.5693 73.8074 82.0304 74.2755 81.487C75.6726 79.8876 77.1931 78.454 78.8155 77.0861C78.9443 76.9759 79.0731 76.8658 79.2058 76.7523C89.1646 68.2706 101.607 62.5328 114.641 61.0265C114.828 61.0036 115.015 60.9806 115.208 60.957C117.493 60.7106 119.787 60.7192 122.084 60.7177ZM100.558 72.6388C100.394 72.7036 100.23 72.7684 100.061 72.8351C90.9197 76.4577 82.3321 83.1225 76.3448 90.922C76.218 91.0846 76.0913 91.2473 75.9608 91.4148C67.527 102.287 62.9515 115.413 62.9412 129.156C62.941 129.358 62.9409 129.559 62.9407 129.766C62.9451 133.172 63.137 136.485 63.7442 139.842C63.7853 140.074 63.8263 140.306 63.8687 140.545C65.6101 150.062 69.6609 158.679 75.6035 166.278C75.8778 166.63 75.8778 166.63 76.1575 166.988C79.5717 171.182 83.5135 175.052 87.9571 178.138C88.1112 178.247 88.2654 178.356 88.4242 178.469C101.128 187.44 116.861 190.908 132.183 188.515C144.396 186.402 155.38 180.788 164.302 172.208C164.484 172.034 164.484 172.034 164.67 171.857C168.541 168.141 171.791 163.728 174.43 159.06C174.672 158.632 174.919 158.207 175.167 157.783C179.489 150.202 182.072 140.951 182.15 132.215C182.152 131.989 182.155 131.764 182.157 131.532C182.199 126.565 182.179 121.738 181.103 116.864C181.048 116.618 180.994 116.373 180.938 116.119C178.368 104.871 172.991 95.0666 165.043 86.7218C164.902 86.5738 164.761 86.4259 164.616 86.2734C162.635 84.2085 160.602 82.3092 158.299 80.609C157.888 80.3052 157.481 79.996 157.075 79.6861C141.06 67.6687 119.008 65.0689 100.558 72.6388Z" fill="#0B1009"/>
<path d="M116.896 49.8151C117.233 49.8152 117.233 49.8152 117.577 49.8152C129.111 49.8418 141.277 52.3364 150.713 59.2964C151.036 59.53 151.036 59.53 151.366 59.7684C155.763 63.1088 159.263 67.504 161.337 72.6382C161.256 72.8013 161.174 72.9643 161.09 73.1323C160.977 73.0581 160.863 72.9838 160.746 72.9072C149.105 65.3413 136.346 60.8872 122.378 60.9487C122.056 60.9494 122.056 60.9494 121.727 60.9501C116.252 60.9693 111.062 61.6866 105.747 63.0025C105.563 63.0476 105.38 63.0927 105.191 63.1391C95.0628 65.7013 85.8488 71.2024 78.0748 78.0738C77.9421 78.1909 77.8093 78.308 77.6726 78.4287C72.1564 83.3294 67.6256 89.2021 63.9918 95.6157C63.8597 95.8443 63.8597 95.8443 63.725 96.0775C59.7216 103.053 57.4789 110.718 56.0855 118.593C56.054 118.768 56.0225 118.943 55.9901 119.124C55.5464 121.647 55.4235 124.19 55.3443 126.747C55.3372 126.953 55.3301 127.159 55.3228 127.372C55.1624 132.688 55.6397 138.112 56.8267 143.3C56.8948 143.614 56.8948 143.614 56.9643 143.935C58.0847 149.056 59.9934 153.797 62.0152 158.619C59.8283 158.677 57.6967 158.46 55.5296 158.202C55.3443 158.18 55.1591 158.158 54.9682 158.135C48.1622 157.316 41.2225 155.978 36.567 150.465C31.3355 143.549 30.8683 134.382 31.9046 126.056C33.5832 114.147 38.3365 102.884 44.9674 92.898C45.0963 92.7018 45.2253 92.5057 45.3582 92.3036C47.218 89.484 49.216 86.8329 51.3912 84.2505C51.6281 83.9656 51.8649 83.6806 52.1015 83.3954C54.3757 80.6661 56.7896 78.0866 59.2914 75.5658C59.5383 75.3169 59.7848 75.0677 60.0309 74.8181C61.6767 73.1512 63.3939 71.6263 65.2271 70.1675C65.481 69.9542 65.7339 69.7396 65.9847 69.5228C69.6597 66.3712 73.6763 63.7487 77.8277 61.273C78.0805 61.1203 78.0805 61.1203 78.3384 60.9645C89.7568 54.0982 103.554 49.7862 116.896 49.8151Z" fill="#FFC629"/>
<path d="M160.348 98.334C161.122 98.9784 161.764 99.5146 161.89 100.546C161.896 100.733 161.902 100.921 161.908 101.114C161.917 101.298 161.926 101.483 161.936 101.673C161.641 103.394 160.182 104.4 158.897 105.422C158.71 105.573 158.523 105.724 158.33 105.88C157.062 106.903 155.782 107.91 154.497 108.911C152.788 110.247 151.122 111.635 149.451 113.018C147.567 114.576 145.668 116.115 143.77 117.656C142.83 118.42 141.891 119.185 140.953 119.953C135.744 124.217 135.744 124.217 133.276 126.126C132.74 126.543 132.222 126.953 131.747 127.44C131.441 127.735 131.441 127.735 130.947 127.735C130.958 127.992 130.97 128.249 130.982 128.513C131.064 131.126 130.873 133.104 129.171 135.209C127.337 137.141 125.123 138.319 122.438 138.467C119.83 138.37 117.555 136.971 115.779 135.147C114.52 133.582 114.105 131.857 114.25 129.898C114.368 127.968 114.368 127.968 113.666 126.213C113.035 125.59 112.388 125.052 111.675 124.523C111.369 124.258 111.066 123.991 110.764 123.72C110.608 123.587 110.452 123.453 110.291 123.315C109.459 122.583 108.654 121.823 107.846 121.064C106.444 119.747 106.444 119.747 105.005 118.47C104.031 117.633 103.099 116.754 102.163 115.876C100.721 114.524 99.2655 113.195 97.7478 111.928C95.5397 110.045 95.5397 110.045 95.2935 108.479C95.2121 107.215 95.5146 106.478 96.3571 105.499C97.2652 104.721 98.0784 104.666 99.2283 104.635C100.644 104.93 101.696 106.069 102.719 107.028C102.98 107.27 103.24 107.512 103.501 107.754C103.629 107.874 103.758 107.994 103.89 108.117C104.431 108.62 104.98 109.113 105.53 109.607C105.73 109.786 105.93 109.966 106.136 110.151C106.333 110.328 106.531 110.505 106.734 110.687C108.186 111.989 109.63 113.299 111.066 114.618C112.051 115.522 113.042 116.418 114.037 117.311C114.453 117.684 114.868 118.058 115.282 118.433C115.7 118.81 116.118 119.186 116.539 119.56C116.898 119.884 117.253 120.215 117.598 120.554C117.743 120.692 117.888 120.83 118.038 120.972C118.219 121.152 118.219 121.152 118.404 121.337C119.078 121.68 119.592 121.459 120.323 121.312C124.58 121.057 124.58 121.057 126.311 122.132C126.752 122.355 126.752 122.355 127.227 122.137C127.802 121.762 128.331 121.359 128.862 120.925C129.081 120.748 129.3 120.57 129.525 120.387C129.75 120.203 129.974 120.019 130.206 119.829C130.412 119.66 130.619 119.491 130.832 119.318C131.272 118.958 131.713 118.597 132.152 118.237C134.32 116.461 136.496 114.694 138.687 112.947C139.549 112.255 140.405 111.556 141.262 110.857C142.523 109.83 143.793 108.815 145.076 107.815C146.195 106.944 147.288 106.05 148.365 105.128C149.871 103.841 151.42 102.616 152.984 101.401C153.451 101.036 153.913 100.666 154.374 100.294C154.529 100.17 154.684 100.046 154.843 99.9187C155.139 99.6821 155.433 99.4444 155.727 99.2055C157.337 97.9223 158.42 97.5827 160.348 98.334Z" fill="#0B1009"/>
<path d="M206.303 58.0609C207.037 58.5019 207.643 59.0127 208.032 59.7904C208.184 61.1208 207.824 61.6968 207.044 62.7553C206.601 63.2606 206.133 63.7355 205.654 64.2068C205.533 64.3298 205.412 64.4527 205.288 64.5793C204.389 65.473 204.389 65.473 203.832 65.473C203.832 65.6361 203.832 65.7992 203.832 65.9672C203.47 66.3235 203.47 66.3235 202.969 66.7378C201.871 67.6719 200.86 68.6694 199.849 69.6964C199.472 70.077 199.094 70.4576 198.717 70.8381C198.131 71.4296 197.546 72.0215 196.962 72.6141C196.392 73.192 195.82 73.7683 195.247 74.3444C195.076 74.5192 194.904 74.694 194.728 74.8741C191.455 78.1629 191.455 78.1629 189.934 78.2435C188.921 78.0577 188.484 77.8183 187.773 77.0854C187.363 76.2668 187.346 75.4934 187.526 74.6147C188.766 72.6769 190.818 71.038 192.444 69.4172C192.944 68.9178 193.444 68.4171 193.943 67.9162C195.32 66.5387 196.689 65.1721 198.176 63.9117C199.462 62.7705 200.637 61.5003 201.838 60.2706C202.049 60.057 202.26 59.8435 202.477 59.6235C202.666 59.43 202.856 59.2366 203.051 59.0373C204.089 58.1007 204.901 57.8917 206.303 58.0609Z" fill="#0B1009"/>
<path d="M186.23 48.0081C186.847 48.4712 187.228 48.8615 187.361 49.6427C187.386 51.1963 186.993 52.3352 186.34 53.7312C186.194 54.0576 186.194 54.0576 186.044 54.3905C185.729 55.0907 185.408 55.7882 185.087 56.4857C184.87 56.9655 184.652 57.4456 184.435 57.9258C184.114 58.637 183.792 59.3482 183.468 60.0585C182.884 61.3424 182.317 62.6301 181.776 63.9325C181.667 64.1951 181.557 64.4577 181.444 64.7282C181.255 65.1864 181.069 65.6458 180.886 66.1066C180.341 67.4095 179.82 68.1454 178.633 68.9319C177.652 69.0695 177.105 69.0261 176.208 68.6076C175.599 68.1376 175.22 67.7428 175.096 66.9628C175.083 65.5166 175.377 64.4691 175.997 63.172C176.083 62.9833 176.169 62.7946 176.257 62.6002C176.536 61.9911 176.82 61.3849 177.104 60.7785C177.297 60.3584 177.49 59.9381 177.683 59.5176C177.972 58.8865 178.261 58.2557 178.552 57.6255C179.123 56.3893 179.682 55.149 180.223 53.8992C180.345 53.6173 180.467 53.3355 180.593 53.045C180.813 52.5339 181.033 52.0224 181.251 51.5105C182.519 48.5892 182.519 48.5892 183.543 47.8382C184.546 47.5432 185.283 47.556 186.23 48.0081Z" fill="#0B1009"/>
<path d="M211.955 81.5943C212.753 82.2512 212.935 82.7074 213.067 83.7253C212.951 84.6972 212.699 85.3184 211.986 85.9798C211.034 86.4534 210.038 86.7523 209.022 87.0607C208.729 87.1534 208.437 87.246 208.135 87.3415C207.357 87.5856 206.577 87.8243 205.795 88.059C205.315 88.2035 204.836 88.3496 204.357 88.4962C203.427 88.7797 202.495 89.0562 201.563 89.3307C201.276 89.4163 200.989 89.5019 200.693 89.5902C199.227 90.0094 197.947 90.3298 196.421 90.18C195.727 89.7368 195.307 89.4341 194.939 88.6976C194.871 88.2063 194.871 88.2063 194.846 87.6321C194.834 87.4445 194.822 87.2569 194.809 87.0636C195.003 86.1821 195.445 85.724 196.174 85.2386C197.062 84.847 197.977 84.572 198.907 84.2966C199.175 84.2144 199.443 84.1323 199.72 84.0476C200.595 83.7813 201.473 83.5216 202.351 83.262C202.659 83.1689 202.967 83.0758 203.285 82.9798C204.213 82.6997 205.142 82.4241 206.072 82.1502C206.361 82.0636 206.65 81.9771 206.948 81.8879C210.366 80.9032 210.366 80.9032 211.955 81.5943Z" fill="#0B1009"/>
<path d="M123.288 168.255C124.363 168.705 125.048 169.415 125.512 170.478C125.652 171.36 125.645 172.229 125.635 173.12C125.635 173.373 125.635 173.625 125.636 173.886C125.635 174.418 125.632 174.951 125.627 175.484C125.62 176.298 125.622 177.112 125.625 177.927C125.624 178.445 125.622 178.964 125.619 179.482C125.62 179.725 125.621 179.968 125.621 180.218C125.6 181.741 125.408 182.616 124.369 183.774C123.444 184.237 122.57 184.26 121.559 184.067C120.801 183.643 120.224 183.127 119.829 182.338C119.803 181.956 119.793 181.573 119.79 181.19C119.787 180.952 119.785 180.713 119.782 180.468C119.781 180.209 119.78 179.951 119.779 179.685C119.777 179.287 119.777 179.287 119.775 178.881C119.773 178.32 119.771 177.758 119.77 177.196C119.768 176.337 119.76 175.478 119.752 174.619C119.751 174.074 119.749 173.528 119.748 172.983C119.745 172.726 119.742 172.469 119.739 172.205C119.744 170.634 119.88 169.711 121.003 168.548C121.806 168.124 122.393 168.161 123.288 168.255Z" fill="#0B1009"/>
<path d="M124.03 73.8742C124.686 74.4273 125.128 75.082 125.512 75.8507C125.538 76.2011 125.549 76.5526 125.552 76.9039C125.554 77.1217 125.557 77.3395 125.559 77.5638C125.56 77.7998 125.561 78.0358 125.562 78.279C125.564 78.5215 125.565 78.7641 125.566 79.014C125.569 79.5283 125.57 80.0425 125.571 80.5568C125.574 81.3414 125.581 82.1259 125.589 82.9106C125.591 83.4102 125.592 83.9098 125.593 84.4094C125.596 84.6434 125.599 84.8774 125.602 85.1185C125.597 86.642 125.401 87.7238 124.369 88.9146C123.446 89.3521 122.562 89.325 121.559 89.1925C120.597 88.7833 120.217 88.4177 119.829 87.463C119.763 86.9039 119.763 86.9039 119.758 86.2857C119.754 86.0531 119.751 85.8206 119.748 85.5809C119.748 85.3313 119.747 85.0816 119.746 84.8244C119.745 84.5661 119.743 84.3078 119.741 84.0416C119.739 83.4954 119.738 82.9492 119.738 82.403C119.737 81.569 119.728 80.7353 119.718 79.9013C119.717 79.3702 119.716 78.8391 119.716 78.3079C119.712 78.0593 119.708 77.8106 119.705 77.5544C119.714 76.0854 119.837 75.2389 120.818 74.1212C121.818 73.4821 122.923 73.4828 124.03 73.8742Z" fill="#0B1009"/>
<path d="M70.7575 126.217C70.9818 126.216 71.2062 126.214 71.4373 126.212C71.6802 126.212 71.9232 126.212 72.1735 126.212C72.4227 126.211 72.6719 126.21 72.9287 126.209C73.4567 126.208 73.9846 126.207 74.5126 126.207C75.3205 126.207 76.1284 126.202 76.9363 126.198C77.4488 126.197 77.9613 126.196 78.4738 126.196C78.8367 126.194 78.8367 126.194 79.207 126.191C79.4328 126.192 79.6587 126.192 79.8914 126.193C80.0896 126.193 80.2879 126.192 80.4921 126.192C81.1171 126.262 81.498 126.409 82.0273 126.747C82.7309 127.717 83.0156 128.17 83.0156 129.372C82.6933 130.46 82.2897 131.162 81.2774 131.717C80.2334 132.029 79.2365 132.016 78.1524 132.019C77.9218 132.02 77.6913 132.022 77.4538 132.024C76.9672 132.026 76.4806 132.027 75.9941 132.027C75.2517 132.028 74.5097 132.037 73.7674 132.047C73.2937 132.048 72.82 132.049 72.3462 132.05C72.0149 132.055 72.0149 132.055 71.677 132.06C70.3114 132.05 69.5152 131.869 68.4385 130.947C67.8523 130.097 67.6973 129.62 67.6973 128.585C67.9903 127.577 68.3799 127.163 69.1797 126.5C69.7605 126.21 70.1101 126.22 70.7575 126.217Z" fill="#0B1009"/>
<path d="M165.411 126.181C165.629 126.178 165.847 126.175 166.071 126.172C166.304 126.171 166.538 126.171 166.778 126.17C167.02 126.169 167.262 126.167 167.511 126.165C168.023 126.163 168.534 126.162 169.045 126.162C169.826 126.161 170.606 126.152 171.386 126.142C171.883 126.141 172.381 126.14 172.878 126.139C173.227 126.134 173.227 126.134 173.582 126.129C175.013 126.138 175.81 126.296 176.902 127.241C177.379 128.007 177.398 128.435 177.366 129.342C177.126 130.302 176.868 130.755 176.161 131.442C175.012 132.068 173.863 132.016 172.587 132.019C172.362 132.02 172.137 132.022 171.905 132.024C171.43 132.026 170.956 132.027 170.481 132.027C169.756 132.028 169.032 132.037 168.308 132.047C167.845 132.048 167.383 132.049 166.92 132.05C166.705 132.053 166.489 132.057 166.267 132.06C164.914 132.05 164.139 131.851 163.067 130.948C162.532 130.271 162.344 129.839 162.217 128.986C162.356 128.017 162.697 127.501 163.314 126.747C164.029 126.303 164.575 126.19 165.411 126.181Z" fill="#0B1009"/>
<path d="M150.712 82.0277C151.448 82.4665 152.053 82.9802 152.442 83.7572C152.748 85.7935 151.779 87.0293 150.682 88.6831C150.517 88.9384 150.353 89.1937 150.184 89.4567C149.859 89.9589 149.532 90.4593 149.202 90.9578C148.902 91.4112 148.607 91.8676 148.318 92.3275C148.192 92.5266 148.065 92.7256 147.935 92.9306C147.826 93.1044 147.718 93.2781 147.606 93.4571C146.942 94.2666 146.334 94.3735 145.308 94.4893C144.475 94.4613 144.211 94.3375 143.439 93.9025C142.619 92.9221 142.457 92.1904 142.559 90.9222C142.897 90.0395 143.383 89.2843 143.903 88.4978C144.038 88.2829 144.174 88.0679 144.314 87.8464C144.712 87.2206 145.117 86.6004 145.524 85.9808C145.728 85.6631 145.932 85.3453 146.136 85.0273C148.252 81.7775 148.252 81.7775 150.712 82.0277Z" fill="#0B1009"/>
<path d="M95.4468 81.9506C95.6344 81.9414 95.822 81.9321 96.0153 81.9226C97.0624 82.1094 97.6892 82.8116 98.3051 83.6452C98.4476 83.8774 98.5901 84.1096 98.7369 84.3489C98.8957 84.6055 99.0545 84.862 99.218 85.1263C99.38 85.3931 99.5419 85.6598 99.7088 85.9346C99.8717 86.1985 100.035 86.4623 100.202 86.7342C100.655 87.469 101.101 88.2066 101.546 88.9458C101.655 89.1234 101.764 89.3011 101.876 89.4841C102.591 90.6785 102.73 91.2855 102.535 92.6518C102.06 93.4948 101.709 93.9933 100.774 94.3147C99.814 94.4786 99.2878 94.4772 98.3818 94.0677C97.1562 93.1854 96.4702 91.7439 95.7094 90.4745C95.5476 90.2107 95.3858 89.9468 95.2191 89.6749C94.7703 88.9405 94.3282 88.2025 93.8872 87.4634C93.7785 87.2873 93.6698 87.1113 93.5579 86.9299C92.8457 85.7522 92.6412 84.8595 92.8989 83.5102C93.61 82.3725 94.1292 81.9927 95.4468 81.9506Z" fill="#0B1009"/>
<path d="M145.617 163.824C145.895 163.836 145.895 163.836 146.178 163.848C147.727 164.401 148.653 166.523 149.477 167.854C149.602 168.055 149.728 168.255 149.857 168.462C150.106 168.86 150.353 169.258 150.6 169.657C150.837 170.036 151.077 170.412 151.323 170.785C151.435 170.956 151.547 171.128 151.662 171.304C151.812 171.529 151.812 171.529 151.965 171.759C152.397 172.603 152.317 173.251 152.195 174.185C151.89 174.887 151.637 175.278 151.037 175.745C150.181 175.999 149.354 176.135 148.489 175.915C147.259 175.058 146.556 174.106 145.802 172.826C145.59 172.474 145.377 172.121 145.165 171.769C145.06 171.593 144.956 171.418 144.848 171.238C144.555 170.758 144.25 170.29 143.937 169.823C142.439 167.57 142.439 167.57 142.358 166.418C142.617 165.283 142.956 164.855 143.794 164.055C144.505 163.819 144.886 163.775 145.617 163.824Z" fill="#0B1009"/>
<path d="M100.804 163.807C101.539 164.248 102.145 164.759 102.534 165.536C102.749 167.382 102.146 168.41 101.16 169.937C101.024 170.154 100.889 170.371 100.749 170.594C100.48 171.023 100.21 171.45 99.9376 171.876C99.626 172.365 99.3215 172.857 99.0219 173.354C97.8075 175.341 97.8075 175.341 96.8513 175.913C95.7458 176.133 94.8708 176.058 93.9019 175.481C93.1216 174.63 92.8974 174.28 92.9001 173.1C93.1162 171.527 94.0852 170.281 94.9365 168.98C95.1018 168.721 95.2671 168.461 95.4374 168.194C98.4314 163.521 98.4314 163.521 100.804 163.807Z" fill="#0B1009"/>
<path d="M84.7456 148.241C85.5046 148.737 85.8465 149.087 86.1431 149.947C86.3222 150.844 86.3052 151.282 85.9192 152.138C85.0277 153.386 83.5493 154.08 82.2594 154.851C81.9873 155.017 81.7151 155.182 81.4347 155.353C80.9317 155.66 80.4278 155.965 79.9228 156.269C79.465 156.548 79.0147 156.839 78.5688 157.136C77.4341 157.319 76.5862 157.287 75.604 156.673C74.9321 155.959 74.8162 155.546 74.7856 154.588C74.7763 154.4 74.7671 154.213 74.7576 154.02C74.9436 152.977 75.6363 152.35 76.4731 151.745C76.7013 151.609 76.9295 151.474 77.1646 151.335C77.4144 151.185 77.6643 151.035 77.9217 150.881C78.1811 150.728 78.4405 150.576 78.7078 150.419C79.2229 150.112 79.7379 149.804 80.253 149.497C80.4809 149.363 80.7088 149.228 80.9436 149.09C82.3222 148.263 83.1248 147.996 84.7456 148.241Z" fill="#0B1009"/>
<path d="M79.266 101.856C80.0515 102.288 80.8167 102.744 81.5803 103.214C81.9756 103.449 81.9756 103.449 82.379 103.689C85.901 105.804 85.901 105.804 86.2283 106.982C86.2086 108.227 86.1805 108.719 85.379 109.684C84.4465 110.435 83.9684 110.563 82.7693 110.441C82.0164 110.129 81.3248 109.726 80.6229 109.314C80.4272 109.202 80.2315 109.089 80.0298 108.974C79.458 108.643 78.8896 108.308 78.3221 107.97C78.1706 107.881 78.0192 107.792 77.8632 107.7C75.4879 106.287 75.4879 106.287 74.8631 105.253C74.7382 103.941 74.7357 103.095 75.6043 102.041C76.6943 101.193 78.0715 101.326 79.266 101.856Z" fill="#0B1009"/>
<path d="M162.82 148.243C163.956 148.802 165.006 149.461 166.061 150.159C166.503 150.451 166.949 150.736 167.397 151.019C169.679 152.488 169.679 152.488 170.232 153.431C170.455 154.558 170.378 155.421 169.768 156.396C168.949 157.167 168.304 157.263 167.175 157.249C165.872 157.025 164.85 156.22 163.777 155.485C163.542 155.33 163.307 155.176 163.066 155.017C162.402 154.577 161.745 154.13 161.09 153.678C160.91 153.556 160.731 153.433 160.546 153.307C159.392 152.506 159.392 152.506 159.113 151.949C158.976 150.804 158.956 149.977 159.577 148.984C160.551 148.067 161.536 147.975 162.82 148.243Z" fill="#0B1009"/>
<path d="M168.749 101.546C169.458 101.989 169.859 102.283 170.232 103.028C170.29 103.52 170.29 103.52 170.309 104.094C170.323 104.375 170.323 104.375 170.337 104.662C170.182 105.53 169.872 105.861 169.243 106.487C168.461 107.032 167.645 107.509 166.819 107.985C166.602 108.113 166.385 108.24 166.162 108.372C165.739 108.621 165.314 108.868 164.889 109.113C164.52 109.326 164.152 109.542 163.786 109.76C162.818 110.331 162.225 110.634 161.09 110.441C160.34 110.037 159.785 109.686 159.268 109.004C159.035 108.19 159.011 107.579 159.113 106.735C160.155 105.118 161.755 104.278 163.375 103.306C163.646 103.136 163.916 102.966 164.195 102.791C165.792 101.827 166.875 101.275 168.749 101.546Z" fill="#0B1009"/>
<path d="M123.536 126.994C124.397 127.484 125.082 128.028 125.463 128.962C125.645 129.92 125.548 130.381 125.111 131.272C124.32 132.166 123.754 132.607 122.563 132.785C121.354 132.612 120.62 132.054 119.86 131.117C119.487 130.224 119.433 129.685 119.582 128.724C120.623 127.075 121.57 126.503 123.536 126.994Z" fill="#F9F9F8"/>
<path d="M201.362 60.7793C201.525 60.9424 201.688 61.1054 201.856 61.2734C201 62.0072 201 62.0072 200.127 62.7559C199.964 62.6743 199.801 62.5928 199.633 62.5088C200.204 61.9381 200.774 61.3673 201.362 60.7793ZM199.139 63.0029C199.22 63.166 199.302 63.3291 199.386 63.4971C199.223 63.4155 199.06 63.334 198.892 63.25C198.973 63.1685 199.055 63.0869 199.139 63.0029ZM198.397 63.7441C198.397 63.9887 198.397 64.2333 198.397 64.4854C198.153 64.4854 197.908 64.4854 197.656 64.4854C197.901 64.2408 198.145 63.9962 198.397 63.7441ZM197.409 64.7324C197.491 64.8955 197.572 65.0586 197.656 65.2266C197.493 65.145 197.33 65.0635 197.162 64.9795C197.244 64.898 197.325 64.8164 197.409 64.7324ZM196.668 65.2266C196.831 65.3081 196.994 65.3896 197.162 65.4736C196.091 66.5443 195.021 67.6149 193.95 68.6855C193.787 68.604 193.624 68.5225 193.456 68.4385C194.516 67.3785 195.576 66.3186 196.668 65.2266Z" fill="#0B1009"/>
<path d="M166.772 180.114C166.772 180.277 166.772 180.44 166.772 180.608C166.093 181.272 166.093 181.272 165.29 181.844C164.703 181.797 164.703 181.797 164.302 181.597C164.465 181.597 164.628 181.597 164.796 181.597C164.821 181.444 164.847 181.291 164.873 181.133C165.204 180.112 165.782 180.114 166.772 180.114Z" fill="#0B1009"/>
<path d="M185.55 47.6841C185.55 47.9287 185.55 48.1733 185.55 48.4253C184.979 48.4253 184.408 48.4253 183.82 48.4253C183.739 48.2622 183.657 48.0992 183.573 47.9312C184.243 47.5965 184.811 47.668 185.55 47.6841ZM183.079 48.1782C183.242 48.2598 183.405 48.3413 183.573 48.4253C183.492 48.5884 183.41 48.7514 183.326 48.9194C183.082 48.8379 182.837 48.7564 182.585 48.6724C182.748 48.5093 182.911 48.3462 183.079 48.1782Z" fill="#0B1009"/>
<path d="M61.7676 158.125C62.7559 158.619 62.7559 158.619 63.0145 159.154C63.0718 159.354 63.1292 159.555 63.1882 159.762C63.278 160.065 63.278 160.065 63.3697 160.374C63.4327 160.606 63.4327 160.606 63.4971 160.843C63.334 160.843 63.1709 160.843 63.0029 160.843C62.5953 159.946 62.1876 159.049 61.7676 158.125Z" fill="#0B1009"/>
<path d="M204.574 58.062C206.242 58.0311 206.242 58.0311 206.798 58.309C206.798 58.5536 206.798 58.7982 206.798 59.0503C206.635 59.0503 206.472 59.0503 206.304 59.0503C206.304 58.8872 206.304 58.7241 206.304 58.5561C205.733 58.6376 205.162 58.7192 204.574 58.8032C204.574 58.5586 204.574 58.314 204.574 58.062Z" fill="#0B1009"/>
<path d="M125.512 130.206C125.759 130.7 125.759 130.7 125.589 131.333C125.482 131.532 125.375 131.731 125.265 131.936C124.939 132.017 124.612 132.099 124.276 132.183C124.684 131.53 125.092 130.878 125.512 130.206ZM123.782 132.183C123.945 132.264 124.108 132.346 124.276 132.43C123.787 132.674 123.787 132.674 123.288 132.924C123.288 132.761 123.288 132.598 123.288 132.43C123.451 132.348 123.614 132.267 123.782 132.183Z" fill="#0B1009"/>
<path d="M56.8255 113.405C57.3274 114.334 57.3274 114.334 57.2579 114.872C57.0443 115.46 56.8189 116.04 56.5785 116.617C56.3133 115.809 56.3579 115.276 56.563 114.455C56.6111 114.258 56.6592 114.06 56.7087 113.857C56.7473 113.708 56.7858 113.559 56.8255 113.405Z" fill="#0B1009"/>
<path d="M177.396 105.005C177.641 105.005 177.886 105.005 178.138 105.005C178.219 105.657 178.301 106.309 178.385 106.981C178.222 106.981 178.059 106.981 177.891 106.981C177.58 106.263 177.396 105.796 177.396 105.005Z" fill="#0B1009"/>
</svg>
