<svg width="27" height="28" viewBox="0 0 27 28" fill="none" xmlns="http://www.w3.org/2000/svg">
<path d="M8.79004 1.45523C10.5809 -0.288689 13.3695 -0.406911 15.4531 0.789211C15.5452 0.861532 15.6376 0.93345 15.7324 1.00796C15.8198 1.07086 15.8201 1.07075 15.9092 1.13491C16.7648 1.79313 17.3767 2.80983 17.5391 3.87808C17.7058 6.13952 16.9109 7.97814 15.5195 9.72476C15.6403 9.73516 15.7613 9.74529 15.8857 9.75601C18.018 9.95535 19.9379 10.4833 21.4727 12.0636C21.5322 12.121 21.592 12.1784 21.6533 12.2375C22.8338 13.4676 23.201 15.174 23.1914 16.8175C23.1665 17.3024 23.0749 17.7582 22.9609 18.2287C23.0183 18.2447 23.0757 18.2609 23.1348 18.2775C23.796 18.4782 24.3424 18.7714 24.9209 19.1457C25.0086 19.2016 25.0961 19.2579 25.1865 19.3156C25.8508 19.7478 26.4434 20.2138 27 20.7804C26.8344 21.1681 26.5952 21.4359 26.3096 21.7433C26.0539 22.0193 25.8271 22.2736 25.6182 22.5871C25.1749 22.528 24.9205 22.2804 24.582 22.0021C23.8136 21.386 22.9779 20.9222 22.1104 20.4611C22.0834 20.536 22.0561 20.6114 22.0283 20.6886C21.1924 22.6334 19.3524 24.1898 17.6455 25.3507C17.5556 25.4135 17.4656 25.4765 17.373 25.5412C16.1324 26.3467 14.6049 26.8961 13.1807 27.2638C13.0494 27.2995 13.0491 27.2996 12.915 27.3361C12.2422 27.4895 11.5698 27.4981 10.8828 27.5031C10.7889 27.5041 10.6944 27.505 10.5977 27.506C9.32396 27.4998 8.08843 27.1655 7.12891 26.2814C6.39467 25.4771 6.12511 24.5456 6.13574 23.4816C6.24116 22.1841 7.13147 21.0776 8.0791 20.2482C10.0474 18.6261 12.5188 17.8568 14.9658 17.3244C15.1513 17.2834 15.3363 17.2378 15.5205 17.1916C17.192 16.808 19.0482 17.0553 20.7285 17.2726C20.7092 15.8872 20.5545 14.6696 19.5449 13.6232C18.1568 12.3775 16.3305 12.3137 14.5635 12.382C13.647 12.4543 12.7725 12.689 11.8936 12.9484C11.3393 13.1054 10.7816 13.22 10.2051 13.1261C9.86105 12.8538 9.61297 12.6168 9.52637 12.1789C9.49764 11.8238 9.48636 11.5433 9.69336 11.2423C9.92307 11.0342 10.1625 10.8593 10.417 10.6818C10.5562 10.5844 10.6957 10.4863 10.835 10.3888C11.0699 10.2246 11.3048 10.0604 11.54 9.89663C12.9964 8.87329 14.6624 7.43277 14.9883 5.57925C15.0603 4.75299 15.0828 4.03243 14.6152 3.32241C14.1794 2.80426 13.6068 2.54511 12.9424 2.4689C11.8772 2.41897 11.0546 2.83144 10.2529 3.51089C9.39998 4.3652 8.84476 5.42562 8.39746 6.53628C8.35846 6.63248 8.31948 6.72916 8.2793 6.82827C7.60925 8.65236 7.42912 10.6366 7.42188 12.5646C7.41941 12.8198 7.41769 13.075 7.41504 13.3302C7.41129 13.7283 7.40766 14.1265 7.40625 14.5246C7.40461 14.9119 7.40021 15.2994 7.39551 15.6867C7.39571 15.8058 7.39628 15.9252 7.39648 16.048C7.38348 16.872 7.38336 16.8723 7.13184 17.2912C6.80639 17.5744 6.60966 17.6121 6.18555 17.6242C6.09508 17.6281 6.00434 17.6318 5.91113 17.6359C5.52684 17.5731 5.36872 17.4494 5.10254 17.1662C5.00319 16.8866 4.93412 16.6429 4.87695 16.3556C4.84237 16.2021 4.80736 16.0481 4.77246 15.8947C4.75625 15.8206 4.73936 15.7464 4.72266 15.6701C4.52919 14.8057 4.21055 14.0285 3.82715 13.2326C3.76757 13.1018 3.70789 12.9708 3.64844 12.84C2.78306 10.9794 1.46486 9.44706 0 8.02456C0.458852 7.38669 0.958946 6.79733 1.48828 6.21695C1.97748 6.43837 2.29668 6.7762 2.6709 7.15347C2.74136 7.22415 2.81216 7.29549 2.88477 7.36831C3.50959 8.00583 4.04933 8.68297 4.57129 9.4064C4.63307 9.48253 4.69514 9.55843 4.75879 9.63687C4.87353 9.80644 5.05016 9.82816 5.09277 10.0441L5.10254 10.1505C5.09692 10.02 5.09075 9.8886 5.08496 9.75405C5.08589 9.10553 5.226 8.49988 5.375 7.87124C5.41808 7.68876 5.41795 7.68834 5.46191 7.5021C6.02049 5.22082 6.9343 3.30621 8.61035 1.64566C8.69907 1.55162 8.69934 1.55137 8.79004 1.45523ZM17.752 19.4914C17.6128 19.4909 17.4778 19.4898 17.3428 19.4894C17.1436 19.4896 17.1433 19.4902 16.9482 19.4904C16.6155 19.4907 16.3055 19.4968 15.9775 19.5529C15.8942 19.5724 15.8133 19.5916 15.7324 19.6105C14.2402 19.9493 12.7477 20.3343 11.377 21.0285C11.2582 21.0906 11.258 21.0906 11.1416 21.1515C10.1438 21.6711 9.15224 22.4341 8.61035 23.4376C8.56463 23.8166 8.55749 24.0657 8.7168 24.4142C9.28636 24.9303 9.86441 25.0814 10.6221 25.0744C10.7219 25.0712 10.8192 25.0687 10.916 25.0656C12.4217 25.0497 13.8555 24.6549 15.1875 23.9455C15.3552 23.8499 15.3551 23.8497 15.5195 23.756C16.1674 23.3876 16.8081 23.0075 17.4014 22.5548C18.1997 21.9061 19.6368 20.6856 19.7715 19.6105C19.4818 19.5426 19.213 19.503 18.915 19.4904C18.7337 19.4902 18.7335 19.4906 18.5557 19.4904C18.4216 19.4902 18.2913 19.4895 18.1611 19.4894C18.022 19.4898 17.887 19.4909 17.752 19.4914Z" fill="#0B1009"/>
</svg>
