<svg width="16" height="16" viewBox="0 0 16 16" fill="none" xmlns="http://www.w3.org/2000/svg">
<path d="M14 10.6666V5.33326C13.9998 5.09944 13.938 4.8698 13.821 4.66737C13.704 4.46493 13.5358 4.29683 13.3333 4.17992L8.66667 1.51326C8.46397 1.39623 8.23405 1.33463 8 1.33463C7.76595 1.33463 7.53603 1.39623 7.33333 1.51326L2.66667 4.17992C2.46418 4.29683 2.29599 4.46493 2.17897 4.66737C2.06196 4.8698 2.00024 5.09944 2 5.33326V10.6666C2.00024 10.9004 2.06196 11.1301 2.17897 11.3325C2.29599 11.5349 2.46418 11.703 2.66667 11.8199L7.33333 14.4866C7.53603 14.6036 7.76595 14.6652 8 14.6652C8.23405 14.6652 8.46397 14.6036 8.66667 14.4866L13.3333 11.8199C13.5358 11.703 13.704 11.5349 13.821 11.3325C13.938 11.1301 13.9998 10.9004 14 10.6666Z" stroke="#0B1009" stroke-width="1.33333" stroke-linecap="round" stroke-linejoin="round"/>
<path d="M2.18005 4.63998L8.00005 8.00665L13.8201 4.63998" stroke="#0B1009" stroke-width="1.33333" stroke-linecap="round" stroke-linejoin="round"/>
<path d="M8 14.72V8" stroke="#0B1009" stroke-width="1.33333" stroke-linecap="round" stroke-linejoin="round"/>
</svg>
