<svg width="18" height="18" viewBox="0 0 18 18" fill="none" xmlns="http://www.w3.org/2000/svg">
<g clip-path="url(#clip0_237_2747)">
<path d="M15.63 3.45747C15.2469 3.07422 14.7921 2.7702 14.2915 2.56278C13.7909 2.35536 13.2543 2.2486 12.7125 2.2486C12.1706 2.2486 11.634 2.35536 11.1335 2.56278C10.6329 2.7702 10.178 3.07422 9.79497 3.45747L8.99997 4.25247L8.20497 3.45747C7.4312 2.6837 6.38174 2.249 5.28747 2.249C4.19319 2.249 3.14374 2.6837 2.36997 3.45747C1.5962 4.23123 1.1615 5.28069 1.1615 6.37497C1.1615 7.46924 1.5962 8.5187 2.36997 9.29247L3.16497 10.0875L8.99997 15.9225L14.835 10.0875L15.63 9.29247C16.0132 8.9094 16.3172 8.45458 16.5247 7.95398C16.7321 7.45339 16.8388 6.91683 16.8388 6.37497C16.8388 5.8331 16.7321 5.29654 16.5247 4.79595C16.3172 4.29535 16.0132 3.84053 15.63 3.45747Z" stroke="black" stroke-width="1.5" stroke-linecap="round" stroke-linejoin="round"/>
</g>
<defs>
<clipPath id="clip0_237_2747">
<rect width="18" height="18" fill="white"/>
</clipPath>
</defs>
</svg>
